<svg version="1.1" id="Layer_1" xmlns="http://www.w3.org/2000/svg" x="0" y="0" viewBox="0 0 236 126" xml:space="preserve">
  <style>.st0{fill:#ffffff}.st1{fill:#a48a7b}</style>
<path class="st0" d="M81.9 94.9H66.1c-1.9 0-2.7-1-2.7-3.2v-28c0-2.3.8-3.4 2.7-3.4h14c1.6 0 2.4.9 2.4 3.1 0 2.3-.7 3.1-2.4 3.1H69v21.9h12.9c1.6 0 2.4.9 2.4 3.1 0 2.5-.8 3.4-2.4 3.4zm10.5 5.8c2 0 2.8 1 2.8 3.4v19c0 2.2-.8 3.2-2.8 3.2-2.1 0-2.8-1-2.8-3.2V107H68.7c-1.6 0-2.4-.9-2.4-3.1 0-2.3.7-3.1 2.4-3.1h23.7zm2.8-38.4v32.3c0 2.2-.8 3.2-2.8 3.2s-2.8-1-2.8-3.2V80.4h-7.2c-1.6 0-2.4-.8-2.4-3.1s.7-3.1 2.4-3.1h7.2V62.3c0-2.2.8-3.2 2.8-3.2s2.8 1 2.8 3.2z"/>
<path class="st0" d="M131.1 93.1c1.6 0 2.4.9 2.4 3.2 0 2.3-.7 3.1-2.4 3.1h-10.6v8.9c0 2.2-.8 3.2-2.8 3.2s-2.8-1-2.8-3.2v-8.9h-12.4c-1.6 0-2.4-.9-2.4-3.1 0-2.3.7-3.2 2.4-3.2h28.6zm-25-5.9c-1.9 0-2.7-1-2.7-3.4V63.1c0-2.3.8-3.4 2.8-3.4 1.9 0 2.7 1 2.7 3.4v5.2h15.7v-5.2c0-2.3.8-3.4 2.7-3.4 1.9 0 2.8 1 2.8 3.4v20.8c0 2.3-.8 3.4-2.7 3.4h-21.3zm22.8 32.6c1.6 0 2.4.8 2.4 3.2 0 2.4-.7 3.2-2.4 3.2h-22.5c-2 0-2.8-1-2.8-3.4v-14.3c0-2.2.8-3.2 2.8-3.2s2.8 1 2.8 3.2v11.3h19.7zm-4.3-45.5h-15.7v6.8h15.7v-6.8z"/>
<path class="st0" d="M164.6 62.6v60c0 2.2-.7 3.2-2.7 3.2-1.9 0-2.7-1-2.7-3.2V93h-3.8v20.6c0 7.2-3.2 11.4-8.8 11.4-5.6 0-8.8-4.2-8.8-11.4V71c0-7.2 3.2-11.4 8.8-11.4 5.6 0 8.8 4.2 8.8 11.4v15.5h3.8V62.6c0-2.2.8-3.2 2.7-3.2 2 0 2.7 1 2.7 3.2zM150 71.3c0-3.8-1.1-5.6-3.4-5.6-2.2 0-3.4 1.8-3.4 5.6v42.1c0 3.8 1.1 5.6 3.4 5.6 2.2 0 3.4-1.8 3.4-5.6V71.3zm23.4-9V123c0 2.2-.8 3.2-2.8 3.2-2 0-2.8-1-2.8-3.2V62.3c0-2.2.8-3.2 2.8-3.2 2 0 2.8 1 2.8 3.2z"/><g>
<path class="st1" d="M46.8 78.1c2.4 0 3.5 1.7 3.5 6.1s-1.1 6.1-3.5 6.1H29.6v30c0 4.1-1.2 6.1-4.3 6.1s-4.3-1.9-4.3-6.1v-30H3.9c-2.4 0-3.5-1.7-3.5-6.1s1.1-6.1 3.5-6.1h42.9zm-36-13.5c-2.2 3-3.9 3.2-6.1-.4-2.1-3.4-1.8-6.1.2-8.8l16.2-22.6V6.7c0-4.1 1.2-6.1 4.3-6.1s4.3 1.9 4.3 6.1v26.1l16.2 22.6c2 2.8 2.3 5.4.2 8.8-2.2 3.6-3.9 3.4-6.1.4L25.4 44.3 10.8 64.6z"/></g><g><path class="st1" d="M218.3 64.6c0 4.4-1.3 6.3-4.2 6.3h-23.6c-2.9 0-4.2-1.9-4.2-6.3V8.5c0-4.4 1.3-6.3 4.2-6.3 3 0 4.2 1.9 4.2 6.3v18.2h15.1V8.5c0-4.4 1.3-6.3 4.2-6.3 2.9 0 4.2 1.9 4.2 6.3v56.1zm14.5 49.9c2.5 0 3.6 1.6 3.6 5.9 0 4.2-1.1 5.9-3.6 5.9h-36.6c-3 0-4.3-1.9-4.3-6.3V87.7c0-4.1 1.2-6 4.3-6 3.1 0 4.3 1.9 4.3 6v26.8h32.3zm-38-55h15.1V38h-15.1v21.5zm31.5 26.9V6.7c0-4.1 1.2-6 4.3-6s4.3 1.9 4.3 6v79.8c0 4.1-1.2 6-4.3 6s-4.3-1.9-4.3-6.1z"/></g></svg>
