<svg version="1.1" id="Layer_1" xmlns="http://www.w3.org/2000/svg" x="0" y="0" viewBox="0 0 236 126" xml:space="preserve">
  <style>.st0{fill:#ffffff}</style>
  <path class="st0" d="M31.9 119.8c0 1.6-.5 2.9-1.6 4-1.1 1-2.4 1.5-4.1 1.5H5.8c-1.7 0-3.1-.5-4.2-1.5s-1.6-2.3-1.6-4v-19.6h7.2v19h17.5v-18.4L2.3 75C.8 73.2 0 71.2 0 69.1V53.4c0-1.6.5-2.9 1.6-4 1.1-1 2.5-1.5 4.2-1.5h20.4c1.7 0 3.1.5 4.1 1.5 1.1 1 1.6 2.3 1.6 4v18h-7.2V54H7.2v16.3l22.5 25.8c1.5 1.7 2.2 3.6 2.2 5.8v17.9z"/><path class="st0" d="M78.7 119.8c0 1.6-.5 2.9-1.6 4-1.1 1-2.5 1.5-4.2 1.5H50.6c-1.7 0-3.1-.5-4.2-1.5s-1.6-2.3-1.6-4V47.9H52v71.3h19.4V47.9h7.3v71.9z"/>
  <path class="st0" d="M189 125.3h-7.2V47.9h7.2v77.4z"/>
  <path class="st0" d="M236 125.3h-5.1l-22-56.9v56.9H202V47.9h5.5l21.6 55.9V47.9h6.9v77.4z"/>
  <path d="M155.6 67.5c3.6 0 6.5-3 6.5-6.8V55c0-3.7-2.9-6.8-6.5-6.8h-36.1V17.8c0-1.4-.4-2.7-1.1-3.7-.5-1.5-1.1-3-2-4.5 0 0-2.4-3.8-6.3-6.6-3.6-2.3-7.4-3.2-9.8-2.1-.3.1-.6.3-.8.5l-.1.1-.1.1c-.7.8-1.1 1.9-.8 3.9v120h57.2c3.6 0 6.5-3 6.5-6.8V113c0-3.7-2.9-6.8-6.5-6.8h-15.3v-.1h15.3c3.6 0 6.5-3 6.5-6.8v-5.7c0-3.7-2.9-6.8-6.5-6.8h-15.3v-.1h15.3c3.6 0 6.5-3 6.5-6.8v-5.7c-.1-3.6-3-6.7-6.6-6.7l-15.3.1v-.1h15.3z" fill="#f4dcb9" stroke="#7a6a58" stroke-miterlimit="10"/></svg>
