<?xml version="1.0" encoding="utf-8"?>
<!-- Generator: Adobe Illustrator 24.2.3, SVG Export Plug-In . SVG Version: 6.00 Build 0)  -->
<svg version="1.1" id="Layer_1" xmlns="http://www.w3.org/2000/svg" xmlns:xlink="http://www.w3.org/1999/xlink" x="0px" y="0px"
	 viewBox="0 0 70.9 22.7" style="enable-background:new 0 0 70.9 22.7;" xml:space="preserve">
<style type="text/css">
	.st0{fill:#D8E6E7;}
</style>
<g>
	<path class="st0" d="M5.6,0v1.8C5.1,2,4.7,2.3,4.4,2.7C4.2,3.1,4,3.5,4,4.1c0,0.5,0.1,1,0.3,1.4c0.2,0.4,0.6,0.8,1,1.1
		C5.7,6.9,6.5,7.3,7.7,8c0.7,0.4,1.3,0.8,1.7,1.1s0.8,0.8,1.1,1.3c0.9,1.3,1.4,2.9,1.4,4.7c0,1.4-0.3,2.6-0.8,3.8
		c-0.5,1.1-1.2,2-2.1,2.7c-0.5,0.3-1,0.6-1.6,0.8s-1.1,0.3-1.6,0.3v-1.8c0.7-0.2,1.2-0.5,1.5-0.9s0.5-0.9,0.5-1.6
		c0-0.7-0.2-1.3-0.7-1.9c-0.3-0.4-0.9-0.8-1.8-1.3c-1-0.6-1.6-1-2-1.2c-0.4-0.2-0.7-0.5-1-0.9C0.7,11.6,0,9.7,0,7.3
		C0,6.1,0.2,5,0.6,3.9s0.9-1.9,1.6-2.5C3,0.6,4.2,0.1,5.6,0z"/>
	<path class="st0" d="M4.9,20.9v1.8c-0.6,0-1.4-0.3-2.1-0.8c-0.3-0.2-0.5-0.3-0.6-0.4S2,21.5,1.9,21.5c-0.2,0-0.3,0-0.4,0.1
		s-0.2,0.2-0.4,0.5c-0.1,0.2-0.3,0.4-0.5,0.4C0.2,22.5,0,22,0,21.1v-5.8c0-0.3,0.1-0.6,0.2-0.8s0.3-0.3,0.5-0.3
		c0.2,0,0.3,0.1,0.4,0.2c0.1,0.1,0.2,0.4,0.3,0.8c0.2,0.9,0.4,1.8,0.8,2.6c0.3,0.8,0.7,1.5,1.2,2C3.8,20.3,4.3,20.7,4.9,20.9z"/>
	<path class="st0" d="M6.5,1.8V0.1c0.5,0,0.9,0.1,1.2,0.2s0.8,0.4,1.5,0.7c0.2,0.1,0.3,0.1,0.4,0.1c0.2,0,0.3-0.1,0.3-0.2l0.3-0.5
		c0.1-0.2,0.3-0.4,0.5-0.4c0.2,0,0.4,0.1,0.5,0.3s0.1,0.5,0.1,1v5.3c0,0.3-0.1,0.6-0.2,0.8c-0.1,0.2-0.3,0.3-0.5,0.3
		c-0.2,0-0.3-0.1-0.4-0.2C10.1,7.5,10,7.4,10,7.3c0-0.1-0.1-0.3-0.1-0.6C9.7,6.1,9.6,5.6,9.4,5C9.2,4.5,8.9,4,8.6,3.5
		C8.1,2.7,7.3,2.1,6.5,1.8z"/>
</g>
<g>
	<path class="st0" d="M14.7,15.4V2.9c0-0.4,0-0.6-0.1-0.8c0-0.1-0.1-0.2-0.1-0.2c0,0-0.2-0.1-0.5-0.2c-0.3-0.1-0.5-0.4-0.5-0.8
		c0-0.3,0.1-0.5,0.2-0.6C13.9,0.1,14.1,0,14.4,0h0.3H20h0.3l0.4,0.1C20.8,0.1,21,0.2,21,0.4s0.1,0.3,0.1,0.5c0,0.4-0.2,0.7-0.5,0.8
		c-0.3,0.1-0.4,0.2-0.5,0.2c0,0-0.1,0.1-0.1,0.2C20,2.3,20,2.5,20,2.9v13.4c0,0.9,0,1.5,0.1,1.9s0.1,0.7,0.2,1
		c0.1,0.3,0.2,0.5,0.3,0.6c0.1,0.1,0.4,0.3,0.7,0.4v2.1H21c-1,0-1.9-0.1-2.6-0.4c-0.8-0.3-1.5-0.7-2.1-1.3c-0.6-0.6-1-1.2-1.3-1.9
		C14.8,18,14.7,16.9,14.7,15.4z"/>
	<path class="st0" d="M22.4,22.2v-2.1c0.8-0.1,1.5-0.6,2-1.3c0.6-0.8,0.9-2.1,0.9-3.6V4.8c0-1.5-0.4-2.5-1.2-3.1
		c-0.2-0.2-0.4-0.3-0.5-0.4c-0.1-0.1-0.1-0.3-0.1-0.5c0-0.3,0.1-0.5,0.2-0.6S24.1,0,24.4,0h2.9c0.2,0,0.4,0,0.5,0S28,0.1,28,0.1
		c0.2,0.2,0.3,0.4,0.3,0.7c0,0.2-0.1,0.4-0.2,0.6c0,0.1-0.2,0.2-0.5,0.4C27.3,2.1,27,2.5,26.8,3s-0.3,1.1-0.3,1.8v10.4
		c0,1.8-0.3,3.3-0.9,4.4c-0.4,0.9-1,1.5-1.8,2C23.4,21.9,22.9,22.1,22.4,22.2z"/>
</g>
<g>
	<path class="st0" d="M36.6,0v21.8h-5.3H31c-0.3,0-0.5-0.1-0.7-0.2s-0.2-0.3-0.2-0.6c0-0.4,0.2-0.7,0.5-0.9c0.3-0.1,0.4-0.2,0.5-0.2
		c0,0,0.1-0.1,0.1-0.2c0.1-0.2,0.1-0.4,0.1-0.8v-16c0-0.4,0-0.6-0.1-0.8c0-0.1-0.1-0.2-0.1-0.2c0,0-0.2-0.1-0.5-0.2
		c-0.3-0.1-0.5-0.4-0.5-0.9c0-0.3,0.1-0.5,0.2-0.6S30.7,0,31,0h0.3H36.6z"/>
	<path class="st0" d="M40.3,10.5c0.7,0.2,1.3,0.4,1.6,0.6s0.7,0.4,1,0.7c0.5,0.5,0.9,1.1,1.2,1.8s0.4,1.6,0.4,2.5
		c0,1.8-0.5,3.2-1.5,4.3c-0.5,0.5-1.1,0.9-1.7,1.1c-0.6,0.2-1.4,0.3-2.4,0.3h-1.4v-1.7c0.3,0,0.6-0.1,0.7-0.2
		c0.2-0.1,0.3-0.2,0.5-0.5c0.3-0.4,0.4-1,0.4-1.8V14c0-0.5,0-0.9-0.1-1.2c-0.1-0.3-0.2-0.6-0.4-0.8c-0.1-0.2-0.3-0.3-0.4-0.4
		c-0.2-0.1-0.4-0.2-0.7-0.2V9.7c0.3,0,0.5-0.1,0.7-0.2c0.2-0.1,0.3-0.2,0.4-0.4C38.9,9,39,8.8,39,8.5c0.1-0.3,0.1-0.5,0.1-0.7V7V4.2
		c0-0.3,0-0.6-0.1-0.9C39,3,38.9,2.7,38.8,2.5c-0.2-0.2-0.3-0.4-0.5-0.5s-0.4-0.2-0.8-0.2V0h1.4c1.8,0,3.2,0.5,4.1,1.5
		c0.4,0.5,0.8,1,1,1.7s0.3,1.4,0.3,2.1c0,0.7-0.1,1.4-0.3,2.1c-0.2,0.7-0.6,1.2-1,1.6c-0.3,0.3-0.7,0.6-1.1,0.8
		C41.6,10.1,41,10.3,40.3,10.5z"/>
</g>
<path class="st0" d="M52.9,21.8h-5.3h-0.3c-0.3,0-0.5-0.1-0.7-0.2c-0.2-0.1-0.2-0.3-0.2-0.6c0-0.4,0.2-0.7,0.5-0.9
	c0.3-0.1,0.4-0.2,0.5-0.2c0,0,0.1-0.1,0.1-0.2c0.1-0.2,0.1-0.4,0.1-0.8v-16c0-0.4,0-0.6-0.1-0.8c0-0.1-0.1-0.2-0.1-0.2
	c0,0-0.2-0.1-0.5-0.2c-0.3-0.1-0.5-0.4-0.5-0.9c0-0.3,0.1-0.5,0.2-0.6C46.8,0.1,47,0,47.3,0h0.3h5.3h0.3c0.3,0,0.5,0.1,0.7,0.2
	s0.2,0.3,0.2,0.6c0,0.4-0.2,0.7-0.5,0.9c-0.3,0.1-0.4,0.2-0.5,0.2c0,0-0.1,0.1-0.1,0.2c-0.1,0.2-0.1,0.4-0.1,0.8v16
	c0,0.4,0,0.6,0.1,0.8c0,0.1,0.1,0.2,0.1,0.2c0,0,0.2,0.1,0.5,0.2c0.3,0.1,0.5,0.4,0.5,0.9c0,0.3-0.1,0.5-0.2,0.6s-0.4,0.2-0.7,0.2
	H52.9z"/>
<g>
	<path class="st0" d="M57.8,5.6L59,8.4V17c0,0.7,0.1,1.4,0.3,1.8c0.2,0.5,0.5,0.9,0.9,1.2l0.4,0.3c0.2,0.2,0.3,0.4,0.3,0.7
		c0,0.2-0.1,0.4-0.2,0.6c-0.1,0.1-0.4,0.2-0.8,0.2h-2.7c-0.7,0-1.1-0.3-1.1-0.8c0-0.2,0-0.3,0.1-0.5c0.1-0.1,0.2-0.3,0.5-0.5
		c0.8-0.6,1.1-1.6,1.1-3.1V5.6z"/>
	<path class="st0" d="M62.7,0L69,14.8v7h-3.2L57.7,3.1c-0.2-0.4-0.3-0.7-0.4-0.8c-0.1-0.2-0.3-0.3-0.4-0.4l-0.5-0.2
		c-0.1-0.1-0.2-0.1-0.3-0.3c-0.1-0.1-0.1-0.3-0.1-0.5c0-0.2,0-0.3,0.1-0.5c0.1-0.2,0.2-0.3,0.3-0.3C56.6,0,56.9,0,57.5,0H62.7z"/>
	<path class="st0" d="M69,12.2l-1.3-2.9V4.9c0-0.9-0.1-1.6-0.3-2.1c-0.2-0.5-0.5-0.9-1-1.2c-0.2-0.1-0.3-0.2-0.3-0.3S66,1,66,0.8
		c0-0.3,0.1-0.5,0.2-0.6C66.4,0.1,66.6,0,66.9,0h3c0.4,0,0.7,0.1,0.8,0.3c0.1,0.2,0.2,0.4,0.2,0.6c0,0.2,0,0.4-0.1,0.5
		c-0.1,0.1-0.3,0.3-0.5,0.5c-0.4,0.3-0.7,0.7-0.9,1.3c-0.2,0.4-0.2,1-0.2,1.8V12.2z"/>
</g>
</svg>
